<svg xmlns="http://www.w3.org/2000/svg" width="1400" height="1750" viewBox="0 0 1400 1750">
  <defs>
    <marker id="arrowhead" markerWidth="10" markerHeight="7" refX="10" refY="3.5" orient="auto">
      <polygon points="0 0, 10 3.5, 0 7" fill="#1b2338"/>
    </marker>
  </defs>

  <rect width="1400" height="1750" fill="#ffffff"/>

  <!-- Note box top-right -->
  <rect x="880" y="20" width="500" height="55" rx="6" fill="#ffffff" stroke="#1b2338" stroke-width="1.5"/>
  <text x="895" y="42" font-family="Arial, sans-serif" font-size="12" fill="#1b2338">Some issue tickets may not have been created yet, but they will be created in the</text>
  <text x="895" y="60" font-family="Arial, sans-serif" font-size="12" fill="#1b2338">next few minutes.</text>

  <!-- Start node -->
  <rect x="50" y="55" width="280" height="50" rx="8" fill="#2c55d4" stroke="#1b2338" stroke-width="2"/>
  <text x="190" y="85" font-family="Arial, sans-serif" font-size="14" font-weight="bold" fill="#ffffff" text-anchor="middle">Refund Module - Nexbridge</text>

  <!-- Row template: arrow from start -> issue rect -> arrow -> diamond -> arrow from right vertex -> Yes/No label -->
  <!-- Y positions: 160, 300, 440, 580, 720, 860, 1000, 1140, 1280, 1420, 1560 -->
  <!-- Diamond center at x=860, half-w=50, half-h=25 => points: 810,Y 860,Y-25 910,Y 860,Y+25 -->
  <!-- Rightmost vertex: 910,Y; arrow from 910,Y to 990,Y; label at 1010,Y -->

  <!-- Issue 1: NEXB-444 (KAN-1 Full refund renders complete) — UNSOLVED -->
  <line x1="330" y1="80" x2="420" y2="160" stroke="#1b2338" stroke-width="1.5" marker-end="url(#arrowhead)"/>
  <rect x="420" y="138" width="260" height="44" rx="6" fill="#ff4733" stroke="#1b2338" stroke-width="1.5"/>
  <text x="550" y="165" font-family="Arial, sans-serif" font-size="13" fill="#ffffff" text-anchor="middle">NEXB-444</text>
  <line x1="680" y1="160" x2="808" y2="160" stroke="#1b2338" stroke-width="1.5" marker-end="url(#arrowhead)"/>
  <polygon points="810,160 860,135 910,160 860,185" fill="#ffffff" stroke="#1b2338" stroke-width="1.5"/>
  <text x="860" y="164" font-family="Arial, sans-serif" font-size="10" fill="#1b2338" text-anchor="middle">Is resolved?</text>
  <line x1="910" y1="160" x2="1000" y2="160" stroke="#1b2338" stroke-width="1.5" marker-end="url(#arrowhead)"/>
  <text x="1020" y="165" font-family="Arial, sans-serif" font-size="14" font-weight="bold" fill="#c23b3b">No</text>

  <!-- Issue 2: NEXB-442 (KAN-3 Partial refund timeout) — UNSOLVED -->
  <line x1="330" y1="80" x2="420" y2="300" stroke="#1b2338" stroke-width="1.5" marker-end="url(#arrowhead)"/>
  <rect x="420" y="278" width="260" height="44" rx="6" fill="#ff4733" stroke="#1b2338" stroke-width="1.5"/>
  <text x="550" y="305" font-family="Arial, sans-serif" font-size="13" fill="#ffffff" text-anchor="middle">NEXB-442</text>
  <line x1="680" y1="300" x2="808" y2="300" stroke="#1b2338" stroke-width="1.5" marker-end="url(#arrowhead)"/>
  <polygon points="810,300 860,275 910,300 860,325" fill="#ffffff" stroke="#1b2338" stroke-width="1.5"/>
  <text x="860" y="304" font-family="Arial, sans-serif" font-size="10" fill="#1b2338" text-anchor="middle">Is resolved?</text>
  <line x1="910" y1="300" x2="1000" y2="300" stroke="#1b2338" stroke-width="1.5" marker-end="url(#arrowhead)"/>
  <text x="1020" y="305" font-family="Arial, sans-serif" font-size="14" font-weight="bold" fill="#c23b3b">No</text>

  <!-- Issue 3: NEXB-443 (KAN-4 Incorrect tax - international) — UNSOLVED -->
  <line x1="330" y1="80" x2="420" y2="440" stroke="#1b2338" stroke-width="1.5" marker-end="url(#arrowhead)"/>
  <rect x="420" y="418" width="260" height="44" rx="6" fill="#ff4733" stroke="#1b2338" stroke-width="1.5"/>
  <text x="550" y="445" font-family="Arial, sans-serif" font-size="13" fill="#ffffff" text-anchor="middle">NEXB-443</text>
  <line x1="680" y1="440" x2="808" y2="440" stroke="#1b2338" stroke-width="1.5" marker-end="url(#arrowhead)"/>
  <polygon points="810,440 860,415 910,440 860,465" fill="#ffffff" stroke="#1b2338" stroke-width="1.5"/>
  <text x="860" y="444" font-family="Arial, sans-serif" font-size="10" fill="#1b2338" text-anchor="middle">Is resolved?</text>
  <line x1="910" y1="440" x2="1000" y2="440" stroke="#1b2338" stroke-width="1.5" marker-end="url(#arrowhead)"/>
  <text x="1020" y="445" font-family="Arial, sans-serif" font-size="14" font-weight="bold" fill="#c23b3b">No</text>

  <!-- Issue 4: NEXB-445 (KAN-5 Partial refund balance update) — UNSOLVED -->
  <line x1="330" y1="80" x2="420" y2="580" stroke="#1b2338" stroke-width="1.5" marker-end="url(#arrowhead)"/>
  <rect x="420" y="558" width="260" height="44" rx="6" fill="#ff4733" stroke="#1b2338" stroke-width="1.5"/>
  <text x="550" y="585" font-family="Arial, sans-serif" font-size="13" fill="#ffffff" text-anchor="middle">NEXB-445</text>
  <line x1="680" y1="580" x2="808" y2="580" stroke="#1b2338" stroke-width="1.5" marker-end="url(#arrowhead)"/>
  <polygon points="810,580 860,555 910,580 860,605" fill="#ffffff" stroke="#1b2338" stroke-width="1.5"/>
  <text x="860" y="584" font-family="Arial, sans-serif" font-size="10" fill="#1b2338" text-anchor="middle">Is resolved?</text>
  <line x1="910" y1="580" x2="1000" y2="580" stroke="#1b2338" stroke-width="1.5" marker-end="url(#arrowhead)"/>
  <text x="1020" y="585" font-family="Arial, sans-serif" font-size="14" font-weight="bold" fill="#c23b3b">No</text>

  <!-- Issue 5: NEXB-446 (KAN-7 Refund reason mandatory to proceed) — UNSOLVED -->
  <line x1="330" y1="80" x2="420" y2="720" stroke="#1b2338" stroke-width="1.5" marker-end="url(#arrowhead)"/>
  <rect x="420" y="698" width="260" height="44" rx="6" fill="#ff4733" stroke="#1b2338" stroke-width="1.5"/>
  <text x="550" y="725" font-family="Arial, sans-serif" font-size="13" fill="#ffffff" text-anchor="middle">NEXB-446</text>
  <line x1="680" y1="720" x2="808" y2="720" stroke="#1b2338" stroke-width="1.5" marker-end="url(#arrowhead)"/>
  <polygon points="810,720 860,695 910,720 860,745" fill="#ffffff" stroke="#1b2338" stroke-width="1.5"/>
  <text x="860" y="724" font-family="Arial, sans-serif" font-size="10" fill="#1b2338" text-anchor="middle">Is resolved?</text>
  <line x1="910" y1="720" x2="1000" y2="720" stroke="#1b2338" stroke-width="1.5" marker-end="url(#arrowhead)"/>
  <text x="1020" y="725" font-family="Arial, sans-serif" font-size="14" font-weight="bold" fill="#c23b3b">No</text>

  <!-- Issue 6: NEXB-447 (KAN-8 Confirmation screen) — UNSOLVED -->
  <line x1="330" y1="80" x2="420" y2="860" stroke="#1b2338" stroke-width="1.5" marker-end="url(#arrowhead)"/>
  <rect x="420" y="838" width="260" height="44" rx="6" fill="#ff4733" stroke="#1b2338" stroke-width="1.5"/>
  <text x="550" y="865" font-family="Arial, sans-serif" font-size="13" fill="#ffffff" text-anchor="middle">NEXB-447</text>
  <line x1="680" y1="860" x2="808" y2="860" stroke="#1b2338" stroke-width="1.5" marker-end="url(#arrowhead)"/>
  <polygon points="810,860 860,835 910,860 860,885" fill="#ffffff" stroke="#1b2338" stroke-width="1.5"/>
  <text x="860" y="864" font-family="Arial, sans-serif" font-size="10" fill="#1b2338" text-anchor="middle">Is resolved?</text>
  <line x1="910" y1="860" x2="1000" y2="860" stroke="#1b2338" stroke-width="1.5" marker-end="url(#arrowhead)"/>
  <text x="1020" y="865" font-family="Arial, sans-serif" font-size="14" font-weight="bold" fill="#c23b3b">No</text>

  <!-- Issue 7: NEXB-448 (KAN-9 No refund cap) — UNSOLVED -->
  <line x1="330" y1="80" x2="420" y2="1000" stroke="#1b2338" stroke-width="1.5" marker-end="url(#arrowhead)"/>
  <rect x="420" y="978" width="260" height="44" rx="6" fill="#ff4733" stroke="#1b2338" stroke-width="1.5"/>
  <text x="550" y="1005" font-family="Arial, sans-serif" font-size="13" fill="#ffffff" text-anchor="middle">NEXB-448</text>
  <line x1="680" y1="1000" x2="808" y2="1000" stroke="#1b2338" stroke-width="1.5" marker-end="url(#arrowhead)"/>
  <polygon points="810,1000 860,975 910,1000 860,1025" fill="#ffffff" stroke="#1b2338" stroke-width="1.5"/>
  <text x="860" y="1004" font-family="Arial, sans-serif" font-size="10" fill="#1b2338" text-anchor="middle">Is resolved?</text>
  <line x1="910" y1="1000" x2="1000" y2="1000" stroke="#1b2338" stroke-width="1.5" marker-end="url(#arrowhead)"/>
  <text x="1020" y="1005" font-family="Arial, sans-serif" font-size="14" font-weight="bold" fill="#c23b3b">No</text>

  <!-- Issue 8: NEXB-449 (KAN-10 Dup refund) — UNSOLVED -->
  <line x1="330" y1="80" x2="420" y2="1140" stroke="#1b2338" stroke-width="1.5" marker-end="url(#arrowhead)"/>
  <rect x="420" y="1118" width="260" height="44" rx="6" fill="#ff4733" stroke="#1b2338" stroke-width="1.5"/>
  <text x="550" y="1145" font-family="Arial, sans-serif" font-size="13" fill="#ffffff" text-anchor="middle">NEXB-449</text>
  <line x1="680" y1="1140" x2="808" y2="1140" stroke="#1b2338" stroke-width="1.5" marker-end="url(#arrowhead)"/>
  <polygon points="810,1140 860,1115 910,1140 860,1165" fill="#ffffff" stroke="#1b2338" stroke-width="1.5"/>
  <text x="860" y="1144" font-family="Arial, sans-serif" font-size="10" fill="#1b2338" text-anchor="middle">Is resolved?</text>
  <line x1="910" y1="1140" x2="1000" y2="1140" stroke="#1b2338" stroke-width="1.5" marker-end="url(#arrowhead)"/>
  <text x="1020" y="1145" font-family="Arial, sans-serif" font-size="14" font-weight="bold" fill="#c23b3b">No</text>

  <!-- Issue 9: NEXB-450 (KAN-11 Refund mobile view misrendered) — UNSOLVED -->
  <line x1="330" y1="80" x2="420" y2="1280" stroke="#1b2338" stroke-width="1.5" marker-end="url(#arrowhead)"/>
  <rect x="420" y="1258" width="260" height="44" rx="6" fill="#ff4733" stroke="#1b2338" stroke-width="1.5"/>
  <text x="550" y="1285" font-family="Arial, sans-serif" font-size="13" fill="#ffffff" text-anchor="middle">NEXB-450</text>
  <line x1="680" y1="1280" x2="808" y2="1280" stroke="#1b2338" stroke-width="1.5" marker-end="url(#arrowhead)"/>
  <polygon points="810,1280 860,1255 910,1280 860,1305" fill="#ffffff" stroke="#1b2338" stroke-width="1.5"/>
  <text x="860" y="1284" font-family="Arial, sans-serif" font-size="10" fill="#1b2338" text-anchor="middle">Is resolved?</text>
  <line x1="910" y1="1280" x2="1000" y2="1280" stroke="#1b2338" stroke-width="1.5" marker-end="url(#arrowhead)"/>
  <text x="1020" y="1285" font-family="Arial, sans-serif" font-size="14" font-weight="bold" fill="#c23b3b">No</text>

  <!-- Issue 10: NEXB-451 (KAN-12 Fake refund sucess) — UNSOLVED -->
  <line x1="330" y1="80" x2="420" y2="1420" stroke="#1b2338" stroke-width="1.5" marker-end="url(#arrowhead)"/>
  <rect x="420" y="1398" width="260" height="44" rx="6" fill="#ff4733" stroke="#1b2338" stroke-width="1.5"/>
  <text x="550" y="1425" font-family="Arial, sans-serif" font-size="13" fill="#ffffff" text-anchor="middle">NEXB-451</text>
  <line x1="680" y1="1420" x2="808" y2="1420" stroke="#1b2338" stroke-width="1.5" marker-end="url(#arrowhead)"/>
  <polygon points="810,1420 860,1395 910,1420 860,1445" fill="#ffffff" stroke="#1b2338" stroke-width="1.5"/>
  <text x="860" y="1424" font-family="Arial, sans-serif" font-size="10" fill="#1b2338" text-anchor="middle">Is resolved?</text>
  <line x1="910" y1="1420" x2="1000" y2="1420" stroke="#1b2338" stroke-width="1.5" marker-end="url(#arrowhead)"/>
  <text x="1020" y="1425" font-family="Arial, sans-serif" font-size="14" font-weight="bold" fill="#c23b3b">No</text>

  <!-- Issue 11: KAN-13 Safari mobile login timeout — SOLVED (no issue key label per format: only unsolved get issue key) -->
  <line x1="330" y1="80" x2="420" y2="1560" stroke="#1b2338" stroke-width="1.5" marker-end="url(#arrowhead)"/>
  <rect x="420" y="1538" width="260" height="44" rx="6" fill="#ff4733" stroke="#1b2338" stroke-width="1.5"/>
  <text x="550" y="1558" font-family="Arial, sans-serif" font-size="11" fill="#ffffff" text-anchor="middle">Safari mobile login</text>
  <text x="550" y="1573" font-family="Arial, sans-serif" font-size="11" fill="#ffffff" text-anchor="middle">timeout - Kai tackled</text>
  <line x1="680" y1="1560" x2="808" y2="1560" stroke="#1b2338" stroke-width="1.5" marker-end="url(#arrowhead)"/>
  <polygon points="810,1560 860,1535 910,1560 860,1585" fill="#ffffff" stroke="#1b2338" stroke-width="1.5"/>
  <text x="860" y="1564" font-family="Arial, sans-serif" font-size="10" fill="#1b2338" text-anchor="middle">Is resolved?</text>
  <line x1="910" y1="1560" x2="1000" y2="1560" stroke="#1b2338" stroke-width="1.5" marker-end="url(#arrowhead)"/>
  <text x="1020" y="1565" font-family="Arial, sans-serif" font-size="14" font-weight="bold" fill="#158a52">Yes</text>
</svg>