<svg xmlns="http://www.w3.org/2000/svg" width="820" height="1130" font-family="Arial, sans-serif">
<rect width="820" height="1130" fill="#ffffff"/>
<defs><marker id="ah" markerWidth="10" markerHeight="7" refX="10" refY="3.5" orient="auto"><polygon points="0 0, 10 3.5, 0 7" fill="#1b2338"/></marker></defs>
<rect x="680" y="20" width="130" height="80" rx="4" fill="#ffffff" stroke="#1b2338" stroke-width="1"/>
<text x="688" y="34" font-size="8" fill="#1b2338">Some issue tickets may</text>
<text x="688" y="45" font-size="8" fill="#1b2338">not have been created</text>
<text x="688" y="56" font-size="8" fill="#1b2338">yet, but they will be</text>
<text x="688" y="67" font-size="8" fill="#1b2338">created in the next</text>
<text x="688" y="78" font-size="8" fill="#1b2338">few minutes.</text>
<rect x="60" y="550.0" width="160" height="50" rx="4" fill="#2c55d4" stroke="#1b2338" stroke-width="1.5"/>
<text x="140.0" y="569.0" text-anchor="middle" font-size="11" font-weight="bold" fill="#ffffff">Refund Module -</text>
<text x="140.0" y="583.0" text-anchor="middle" font-size="11" font-weight="bold" fill="#ffffff">Nexbridge</text>
<line x1="220" y1="575.0" x2="280" y2="125.0" stroke="#1b2338" stroke-width="1.2" marker-end="url(#ah)"/>
<rect x="280" y="103.0" width="160" height="44" rx="4" fill="#ff4733" stroke="#1b2338" stroke-width="1.2"/>
<text x="360.0" y="130.0" text-anchor="middle" font-size="11" font-weight="bold" fill="#ffffff">NEXB-444</text>
<line x1="440" y1="125.0" x2="492" y2="125.0" stroke="#1b2338" stroke-width="1.2" marker-end="url(#ah)"/>
<polygon points="520,97.0 548,125.0 520,153.0 492,125.0" fill="#ffffff" stroke="#1b2338" stroke-width="1.2"/>
<text x="520" y="121.0" text-anchor="middle" font-size="8" fill="#1b2338">Is</text>
<text x="520" y="132.0" text-anchor="middle" font-size="8" fill="#1b2338">resolved?</text>
<line x1="548" y1="125.0" x2="603" y2="125.0" stroke="#1b2338" stroke-width="1.2" marker-end="url(#ah)"/>
<text x="618" y="130.0" font-size="13" font-weight="bold" fill="#c23b3b">No</text>
<line x1="220" y1="575.0" x2="280" y2="215.0" stroke="#1b2338" stroke-width="1.2" marker-end="url(#ah)"/>
<rect x="280" y="193.0" width="160" height="44" rx="4" fill="#ff4733" stroke="#1b2338" stroke-width="1.2"/>
<text x="360.0" y="220.0" text-anchor="middle" font-size="11" font-weight="bold" fill="#ffffff">NEXB-442</text>
<line x1="440" y1="215.0" x2="492" y2="215.0" stroke="#1b2338" stroke-width="1.2" marker-end="url(#ah)"/>
<polygon points="520,187.0 548,215.0 520,243.0 492,215.0" fill="#ffffff" stroke="#1b2338" stroke-width="1.2"/>
<text x="520" y="211.0" text-anchor="middle" font-size="8" fill="#1b2338">Is</text>
<text x="520" y="222.0" text-anchor="middle" font-size="8" fill="#1b2338">resolved?</text>
<line x1="548" y1="215.0" x2="603" y2="215.0" stroke="#1b2338" stroke-width="1.2" marker-end="url(#ah)"/>
<text x="618" y="220.0" font-size="13" font-weight="bold" fill="#c23b3b">No</text>
<line x1="220" y1="575.0" x2="280" y2="305.0" stroke="#1b2338" stroke-width="1.2" marker-end="url(#ah)"/>
<rect x="280" y="283.0" width="160" height="44" rx="4" fill="#ff4733" stroke="#1b2338" stroke-width="1.2"/>
<text x="360.0" y="310.0" text-anchor="middle" font-size="11" font-weight="bold" fill="#ffffff">NEXB-443</text>
<line x1="440" y1="305.0" x2="492" y2="305.0" stroke="#1b2338" stroke-width="1.2" marker-end="url(#ah)"/>
<polygon points="520,277.0 548,305.0 520,333.0 492,305.0" fill="#ffffff" stroke="#1b2338" stroke-width="1.2"/>
<text x="520" y="301.0" text-anchor="middle" font-size="8" fill="#1b2338">Is</text>
<text x="520" y="312.0" text-anchor="middle" font-size="8" fill="#1b2338">resolved?</text>
<line x1="548" y1="305.0" x2="603" y2="305.0" stroke="#1b2338" stroke-width="1.2" marker-end="url(#ah)"/>
<text x="618" y="310.0" font-size="13" font-weight="bold" fill="#c23b3b">No</text>
<line x1="220" y1="575.0" x2="280" y2="395.0" stroke="#1b2338" stroke-width="1.2" marker-end="url(#ah)"/>
<rect x="280" y="373.0" width="160" height="44" rx="4" fill="#ff4733" stroke="#1b2338" stroke-width="1.2"/>
<text x="360.0" y="400.0" text-anchor="middle" font-size="11" font-weight="bold" fill="#ffffff">NEXB-445</text>
<line x1="440" y1="395.0" x2="492" y2="395.0" stroke="#1b2338" stroke-width="1.2" marker-end="url(#ah)"/>
<polygon points="520,367.0 548,395.0 520,423.0 492,395.0" fill="#ffffff" stroke="#1b2338" stroke-width="1.2"/>
<text x="520" y="391.0" text-anchor="middle" font-size="8" fill="#1b2338">Is</text>
<text x="520" y="402.0" text-anchor="middle" font-size="8" fill="#1b2338">resolved?</text>
<line x1="548" y1="395.0" x2="603" y2="395.0" stroke="#1b2338" stroke-width="1.2" marker-end="url(#ah)"/>
<text x="618" y="400.0" font-size="13" font-weight="bold" fill="#c23b3b">No</text>
<line x1="220" y1="575.0" x2="280" y2="485.0" stroke="#1b2338" stroke-width="1.2" marker-end="url(#ah)"/>
<rect x="280" y="463.0" width="160" height="44" rx="4" fill="#ff4733" stroke="#1b2338" stroke-width="1.2"/>
<text x="360.0" y="490.0" text-anchor="middle" font-size="11" font-weight="bold" fill="#ffffff">NEXB-446</text>
<line x1="440" y1="485.0" x2="492" y2="485.0" stroke="#1b2338" stroke-width="1.2" marker-end="url(#ah)"/>
<polygon points="520,457.0 548,485.0 520,513.0 492,485.0" fill="#ffffff" stroke="#1b2338" stroke-width="1.2"/>
<text x="520" y="481.0" text-anchor="middle" font-size="8" fill="#1b2338">Is</text>
<text x="520" y="492.0" text-anchor="middle" font-size="8" fill="#1b2338">resolved?</text>
<line x1="548" y1="485.0" x2="603" y2="485.0" stroke="#1b2338" stroke-width="1.2" marker-end="url(#ah)"/>
<text x="618" y="490.0" font-size="13" font-weight="bold" fill="#c23b3b">No</text>
<line x1="220" y1="575.0" x2="280" y2="575.0" stroke="#1b2338" stroke-width="1.2" marker-end="url(#ah)"/>
<rect x="280" y="553.0" width="160" height="44" rx="4" fill="#ff4733" stroke="#1b2338" stroke-width="1.2"/>
<text x="360.0" y="580.0" text-anchor="middle" font-size="11" font-weight="bold" fill="#ffffff">NEXB-447</text>
<line x1="440" y1="575.0" x2="492" y2="575.0" stroke="#1b2338" stroke-width="1.2" marker-end="url(#ah)"/>
<polygon points="520,547.0 548,575.0 520,603.0 492,575.0" fill="#ffffff" stroke="#1b2338" stroke-width="1.2"/>
<text x="520" y="571.0" text-anchor="middle" font-size="8" fill="#1b2338">Is</text>
<text x="520" y="582.0" text-anchor="middle" font-size="8" fill="#1b2338">resolved?</text>
<line x1="548" y1="575.0" x2="603" y2="575.0" stroke="#1b2338" stroke-width="1.2" marker-end="url(#ah)"/>
<text x="618" y="580.0" font-size="13" font-weight="bold" fill="#c23b3b">No</text>
<line x1="220" y1="575.0" x2="280" y2="665.0" stroke="#1b2338" stroke-width="1.2" marker-end="url(#ah)"/>
<rect x="280" y="643.0" width="160" height="44" rx="4" fill="#ff4733" stroke="#1b2338" stroke-width="1.2"/>
<text x="360.0" y="670.0" text-anchor="middle" font-size="11" font-weight="bold" fill="#ffffff">NEXB-448</text>
<line x1="440" y1="665.0" x2="492" y2="665.0" stroke="#1b2338" stroke-width="1.2" marker-end="url(#ah)"/>
<polygon points="520,637.0 548,665.0 520,693.0 492,665.0" fill="#ffffff" stroke="#1b2338" stroke-width="1.2"/>
<text x="520" y="661.0" text-anchor="middle" font-size="8" fill="#1b2338">Is</text>
<text x="520" y="672.0" text-anchor="middle" font-size="8" fill="#1b2338">resolved?</text>
<line x1="548" y1="665.0" x2="603" y2="665.0" stroke="#1b2338" stroke-width="1.2" marker-end="url(#ah)"/>
<text x="618" y="670.0" font-size="13" font-weight="bold" fill="#c23b3b">No</text>
<line x1="220" y1="575.0" x2="280" y2="755.0" stroke="#1b2338" stroke-width="1.2" marker-end="url(#ah)"/>
<rect x="280" y="733.0" width="160" height="44" rx="4" fill="#ff4733" stroke="#1b2338" stroke-width="1.2"/>
<text x="360.0" y="760.0" text-anchor="middle" font-size="11" font-weight="bold" fill="#ffffff">NEXB-449</text>
<line x1="440" y1="755.0" x2="492" y2="755.0" stroke="#1b2338" stroke-width="1.2" marker-end="url(#ah)"/>
<polygon points="520,727.0 548,755.0 520,783.0 492,755.0" fill="#ffffff" stroke="#1b2338" stroke-width="1.2"/>
<text x="520" y="751.0" text-anchor="middle" font-size="8" fill="#1b2338">Is</text>
<text x="520" y="762.0" text-anchor="middle" font-size="8" fill="#1b2338">resolved?</text>
<line x1="548" y1="755.0" x2="603" y2="755.0" stroke="#1b2338" stroke-width="1.2" marker-end="url(#ah)"/>
<text x="618" y="760.0" font-size="13" font-weight="bold" fill="#c23b3b">No</text>
<line x1="220" y1="575.0" x2="280" y2="845.0" stroke="#1b2338" stroke-width="1.2" marker-end="url(#ah)"/>
<rect x="280" y="823.0" width="160" height="44" rx="4" fill="#ff4733" stroke="#1b2338" stroke-width="1.2"/>
<text x="360.0" y="850.0" text-anchor="middle" font-size="11" font-weight="bold" fill="#ffffff">NEXB-450</text>
<line x1="440" y1="845.0" x2="492" y2="845.0" stroke="#1b2338" stroke-width="1.2" marker-end="url(#ah)"/>
<polygon points="520,817.0 548,845.0 520,873.0 492,845.0" fill="#ffffff" stroke="#1b2338" stroke-width="1.2"/>
<text x="520" y="841.0" text-anchor="middle" font-size="8" fill="#1b2338">Is</text>
<text x="520" y="852.0" text-anchor="middle" font-size="8" fill="#1b2338">resolved?</text>
<line x1="548" y1="845.0" x2="603" y2="845.0" stroke="#1b2338" stroke-width="1.2" marker-end="url(#ah)"/>
<text x="618" y="850.0" font-size="13" font-weight="bold" fill="#c23b3b">No</text>
<line x1="220" y1="575.0" x2="280" y2="935.0" stroke="#1b2338" stroke-width="1.2" marker-end="url(#ah)"/>
<rect x="280" y="913.0" width="160" height="44" rx="4" fill="#ff4733" stroke="#1b2338" stroke-width="1.2"/>
<text x="360.0" y="940.0" text-anchor="middle" font-size="11" font-weight="bold" fill="#ffffff">NEXB-451</text>
<line x1="440" y1="935.0" x2="492" y2="935.0" stroke="#1b2338" stroke-width="1.2" marker-end="url(#ah)"/>
<polygon points="520,907.0 548,935.0 520,963.0 492,935.0" fill="#ffffff" stroke="#1b2338" stroke-width="1.2"/>
<text x="520" y="931.0" text-anchor="middle" font-size="8" fill="#1b2338">Is</text>
<text x="520" y="942.0" text-anchor="middle" font-size="8" fill="#1b2338">resolved?</text>
<line x1="548" y1="935.0" x2="603" y2="935.0" stroke="#1b2338" stroke-width="1.2" marker-end="url(#ah)"/>
<text x="618" y="940.0" font-size="13" font-weight="bold" fill="#c23b3b">No</text>
<line x1="220" y1="575.0" x2="280" y2="1025.0" stroke="#1b2338" stroke-width="1.2" marker-end="url(#ah)"/>
<rect x="280" y="1003.0" width="160" height="44" rx="4" fill="#ff4733" stroke="#1b2338" stroke-width="1.2"/>
<text x="360.0" y="1030.0" text-anchor="middle" font-size="11" font-weight="bold" fill="#ffffff">NEXB-398</text>
<line x1="440" y1="1025.0" x2="492" y2="1025.0" stroke="#1b2338" stroke-width="1.2" marker-end="url(#ah)"/>
<polygon points="520,997.0 548,1025.0 520,1053.0 492,1025.0" fill="#ffffff" stroke="#1b2338" stroke-width="1.2"/>
<text x="520" y="1021.0" text-anchor="middle" font-size="8" fill="#1b2338">Is</text>
<text x="520" y="1032.0" text-anchor="middle" font-size="8" fill="#1b2338">resolved?</text>
<line x1="548" y1="1025.0" x2="603" y2="1025.0" stroke="#1b2338" stroke-width="1.2" marker-end="url(#ah)"/>
<text x="618" y="1030.0" font-size="13" font-weight="bold" fill="#158a52">Yes</text>
</svg>